<svg xmlns="http://www.w3.org/2000/svg" style="margin:auto;background:#fff;z-index:1;position:relative" width="1920" height="1048" preserveAspectRatio="xMidYMid" viewBox="0 0 1920 1048" display="block"><g transform="rotate(167.204 1165.96 320.296)"><animateTransform attributeName="transform" type="translate" keyTimes="0;1" values="1892.0993446427933 -100;3092.5256338092368 1148" dur="20s" repeatCount="indefinite" begin="-3.9807088180428796s"/><animateTransform attributeName="transform" type="rotate" keyTimes="0;1" begin="-3.9807088180428796s" values="0 50 50;539.5990005077713 50 50" dur="20s" repeatCount="indefinite" additive="sum"/><path d="M54.538 41.483a34.32 34.32 0 0 0-3.81-.8c6.624-6.935 9.824-17.075 8.191-26.545a39.66 39.66 0 0 0-9.248 4.563 41.92 41.92 0 0 0-7.096 5.957C42.063 15.511 38.27 6.52 31.811 0a48.614 48.614 0 0 0-6.085 11.07 51.556 51.556 0 0 0-3.536 17.899A42.094 42.094 0 0 0 10.425 16.29a39.652 39.652 0 0 0-9.118-4.817C-.79 21.904 3.011 33.32 10.942 40.408c.23.206.465.408.703.606a32.533 32.533 0 0 0-4.348 1.07A30.962 30.962 0 0 0 0 45.507c5.521 6.215 14.432 9.215 22.588 7.602 2.199-.435 4.369-1.197 6.168-2.53l.136-.105a39.96 39.96 0 0 1-3.184 10.12l4.685 1.75a44.096 44.096 0 0 0 1.755-11.023c.067.048.134.095.202.14 1.96 1.32 4.282 2.017 6.618 2.369 8.664 1.305 17.903-2.282 23.417-9.094a32.678 32.678 0 0 0-7.847-3.253z" fill="#fff"/></g><g transform="rotate(46.867 -484.723 1560.22)"><animateTransform attributeName="transform" type="translate" keyTimes="0;1" values="-100 427.1720059634596;2020 1331.7199389054967" dur="20s" repeatCount="indefinite" begin="-7.52839717680863s"/><animateTransform attributeName="transform" type="rotate" keyTimes="0;1" begin="-7.52839717680863s" values="0 50 50;835.023802636517 50 50" dur="20s" repeatCount="indefinite" additive="sum"/><path d="M54.117 41.163a34.056 34.056 0 0 0-3.78-.794c6.572-6.882 9.748-16.943 8.127-26.34a39.355 39.355 0 0 0-9.176 4.527 41.597 41.597 0 0 0-7.041 5.912C41.739 15.391 37.974 6.47 31.565 0a48.239 48.239 0 0 0-6.037 10.984 51.158 51.158 0 0 0-3.51 17.761 41.77 41.77 0 0 0-11.673-12.58 39.346 39.346 0 0 0-9.048-4.78c-2.08 10.35 1.69 21.677 9.56 28.711.23.205.462.405.698.602-1.46.254-2.903.608-4.314 1.061A30.723 30.723 0 0 0 0 45.156c5.478 6.167 14.32 9.143 22.414 7.543 2.182-.431 4.335-1.188 6.12-2.511.046-.034.09-.069.135-.104a39.651 39.651 0 0 1-3.16 10.042l4.65 1.737A43.756 43.756 0 0 0 31.9 50.925l.2.14c1.946 1.308 4.25 2 6.567 2.35 8.598 1.295 17.765-2.265 23.237-9.024a32.426 32.426 0 0 0-7.787-3.228z" fill="#fff"/></g><g transform="rotate(51.033 511.466 2246.102)"><animateTransform attributeName="transform" type="translate" keyTimes="0;1" values="257.5244930900085 -100;2020 504.7014214663393" dur="20s" repeatCount="indefinite" begin="-16.1805251278891s"/><animateTransform attributeName="transform" type="rotate" keyTimes="0;1" begin="-16.1805251278891s" values="0 50 50;446.84400395438956 50 50" dur="20s" repeatCount="indefinite" additive="sum"/><path d="M89.232 67.872a56.153 56.153 0 0 0-6.234-1.31C93.835 55.216 99.071 38.625 96.4 23.132c-5.344 1.807-10.434 4.34-15.13 7.465a68.587 68.587 0 0 0-11.61 9.747C68.82 25.378 62.614 10.667 52.047 0c-4.098 5.564-7.432 11.68-9.955 18.111a84.352 84.352 0 0 0-5.787 29.285 68.872 68.872 0 0 0-19.248-20.742c-4.607-3.253-9.626-5.927-14.919-7.88-3.43 17.063 2.788 35.74 15.765 47.339.377.337.76.667 1.15.992a53.228 53.228 0 0 0-7.114 1.75A50.658 50.658 0 0 0 0 74.455c9.033 10.17 23.613 15.077 36.958 12.438 3.597-.711 7.147-1.958 10.091-4.14.075-.056.148-.114.223-.171a65.379 65.379 0 0 1-5.21 16.557l7.665 2.864a72.148 72.148 0 0 0 2.872-18.035c.109.078.22.155.33.23 3.208 2.157 7.006 3.299 10.827 3.874 14.177 2.137 29.292-3.733 38.314-14.877a53.466 53.466 0 0 0-12.838-5.323z" fill="#e4812f"/></g><g transform="rotate(91.185 293.98 859.808)"><animateTransform attributeName="transform" type="translate" keyTimes="0;1" values="-100 137.70561064140855;2020 951.7790788925345" dur="20s" repeatCount="indefinite" begin="-8.714148813971843s"/><animateTransform attributeName="transform" type="rotate" keyTimes="0;1" begin="-8.714148813971843s" values="0 50 50;825.5303469647868 50 50" dur="20s" repeatCount="indefinite" additive="sum"/><path d="M69.958 53.211a44.024 44.024 0 0 0-4.887-1.026c8.496-8.896 12.601-21.903 10.506-34.05a50.874 50.874 0 0 0-11.863 5.853 53.772 53.772 0 0 0-9.101 7.642C53.956 19.896 49.089 8.363 40.805 0 37.592 4.362 34.978 9.158 33 14.2a66.132 66.132 0 0 0-4.537 22.959 53.995 53.995 0 0 0-15.09-16.263A50.862 50.862 0 0 0 1.676 14.72c-2.69 13.377 2.186 28.02 12.36 37.114.295.264.596.523.901.777a41.731 41.731 0 0 0-5.577 1.372A39.716 39.716 0 0 0 0 58.372c7.082 7.974 18.513 11.821 28.975 9.752 2.82-.557 5.603-1.535 7.912-3.246.058-.043.116-.089.174-.134a51.257 51.257 0 0 1-4.084 12.98l6.009 2.246a56.564 56.564 0 0 0 2.252-14.139c.085.06.172.122.259.18 2.514 1.692 5.492 2.586 8.488 3.038 11.114 1.675 22.965-2.928 30.038-11.664a41.917 41.917 0 0 0-10.065-4.174z" fill="#0a0a0a"/></g><g transform="rotate(119.593 546.302 348.493)"><animateTransform attributeName="transform" type="translate" keyTimes="0;1" values="797.7254967448575 -100;2020 587.6710537966673" dur="20s" repeatCount="indefinite" begin="-1.1087170617630582s"/><animateTransform attributeName="transform" type="rotate" keyTimes="0;1" begin="-1.1087170617630582s" values="0 50 50;719.2796943497847 50 50" dur="20s" repeatCount="indefinite" additive="sum"/><path d="M52.533 39.958a33.059 33.059 0 0 0-3.67-.771c6.38-6.68 9.463-16.447 7.89-25.569a38.202 38.202 0 0 0-8.908 4.395 40.379 40.379 0 0 0-6.835 5.739C40.516 14.94 36.862 6.28 30.64 0a46.826 46.826 0 0 0-5.86 10.663 49.66 49.66 0 0 0-3.407 17.24 40.546 40.546 0 0 0-11.332-12.211 38.194 38.194 0 0 0-8.783-4.64C-.761 21.099 2.9 32.094 10.54 38.923c.222.199.448.393.677.584-1.418.247-2.818.591-4.188 1.03A29.824 29.824 0 0 0 0 43.833c5.318 5.987 13.901 8.877 21.758 7.323 2.117-.419 4.207-1.153 5.941-2.438.044-.032.087-.066.131-.1a38.49 38.49 0 0 1-3.067 9.747l4.512 1.686a42.475 42.475 0 0 0 1.691-10.617c.064.046.13.091.195.135 1.888 1.27 4.124 1.942 6.374 2.281 8.346 1.258 17.245-2.198 22.556-8.759a31.477 31.477 0 0 0-7.558-3.133z" fill="#0a0a0a"/></g><g transform="rotate(154.491 471.734 303.356)"><animateTransform attributeName="transform" type="translate" keyTimes="0;1" values="413.90207853338677 -100;2020 1192.4400130322135" dur="20s" repeatCount="indefinite" begin="-3.979283934885598s"/><animateTransform attributeName="transform" type="rotate" keyTimes="0;1" begin="-3.979283934885598s" values="0 50 50;498.6851154813588 50 50" dur="20s" repeatCount="indefinite" additive="sum"/><path d="M114.69 87.236a72.174 72.174 0 0 0-8.011-1.683c13.928-14.583 20.658-35.907 17.224-55.821-6.87 2.322-13.412 5.578-19.448 9.594a88.155 88.155 0 0 0-14.922 12.529C88.456 32.618 80.478 13.71 66.896 0c-5.267 7.151-9.552 15.014-12.795 23.279-4.695 11.967-7.217 24.786-7.437 37.64a88.521 88.521 0 0 0-24.74-26.66C16 30.076 9.55 26.64 2.747 24.13-1.66 46.061 6.331 70.067 23.011 84.976c.484.432.977.858 1.477 1.275a68.415 68.415 0 0 0-9.142 2.248C9.947 90.227 4.768 92.635 0 95.698c11.61 13.07 30.35 19.378 47.502 15.987 4.623-.915 9.186-2.518 12.97-5.323.097-.07.191-.145.287-.219-1.295 7.428-3.56 14.61-6.696 21.281l9.851 3.681a92.732 92.732 0 0 0 3.692-23.18c.14.1.282.2.425.295 4.122 2.774 9.004 4.24 13.915 4.98 18.222 2.746 37.65-4.799 49.246-19.122-5.168-2.995-10.737-5.282-16.502-6.842z" fill="#28292f"/></g><g transform="rotate(77.636 -81.542 1029.237)"><animateTransform attributeName="transform" type="translate" keyTimes="0;1" values="-100 352.24850150319054;1289.641425195297 1148" dur="20s" repeatCount="indefinite" begin="-11.501276995552292s"/><animateTransform attributeName="transform" type="rotate" keyTimes="0;1" begin="-11.501276995552292s" values="0 50 50;638.0500975915943 50 50" dur="20s" repeatCount="indefinite" additive="sum"/><path d="M66.112 50.286a41.604 41.604 0 0 0-4.619-.97c8.03-8.407 11.909-20.698 9.929-32.177a48.077 48.077 0 0 0-11.21 5.53 50.816 50.816 0 0 0-8.602 7.222C50.99 18.802 46.39 7.903 38.561 0c-3.036 4.122-5.506 8.654-7.375 13.419a62.496 62.496 0 0 0-4.287 21.697 51.027 51.027 0 0 0-14.262-15.368 48.066 48.066 0 0 0-11.053-5.839C-.957 26.551 3.65 40.39 13.264 48.983c.28.25.564.495.852.735-1.784.31-3.546.743-5.27 1.296A37.533 37.533 0 0 0 0 55.164c6.693 7.534 17.495 11.17 27.382 9.215 2.665-.527 5.295-1.451 7.477-3.068.055-.04.11-.084.165-.126a48.44 48.44 0 0 1-3.86 12.267l5.678 2.122a53.454 53.454 0 0 0 2.128-13.362c.081.057.163.115.245.17 2.377 1.599 5.19 2.444 8.022 2.87 10.503 1.583 21.702-2.766 28.387-11.022a39.613 39.613 0 0 0-9.512-3.944z" fill="#fff"/></g><g transform="rotate(4.277 -13958.842 13482.84)"><animateTransform attributeName="transform" type="translate" keyTimes="0;1" values="-100 449.93372951252803;2020 1711.0061265459585" dur="20s" repeatCount="indefinite" begin="-7.809055278465493s"/><animateTransform attributeName="transform" type="rotate" keyTimes="0;1" begin="-7.809055278465493s" values="0 50 50;8.531481680208453 50 50" dur="20s" repeatCount="indefinite" additive="sum"/><path d="M73.257 55.72a46.1 46.1 0 0 0-5.118-1.074C77.036 45.33 81.335 31.71 79.141 18.99a53.273 53.273 0 0 0-12.422 6.128 56.308 56.308 0 0 0-9.531 8.003C56.5 20.834 51.404 8.758 42.728 0c-3.364 4.568-6.1 9.59-8.172 14.869a69.25 69.25 0 0 0-4.75 24.042 56.542 56.542 0 0 0-15.803-17.03 53.261 53.261 0 0 0-12.247-6.468C-1.061 29.42 4.044 44.754 14.698 54.277c.31.276.624.548.944.814-1.977.345-3.93.824-5.84 1.437A41.59 41.59 0 0 0 0 61.126c7.416 8.348 19.386 12.377 30.341 10.211 2.953-.584 5.868-1.608 8.285-3.4.061-.045.122-.093.183-.14a53.674 53.674 0 0 1-4.277 13.593l6.292 2.351a59.231 59.231 0 0 0 2.358-14.806c.09.064.18.128.272.189 2.633 1.771 5.75 2.708 8.888 3.18C63.981 74.06 76.39 69.24 83.797 60.092a43.894 43.894 0 0 0-10.54-4.37z" fill="#e4812f"/></g><g transform="rotate(34.643 -13.116 4680.986)"><animateTransform attributeName="transform" type="translate" keyTimes="0;1" values="1680.7097507833992 -100;2907.4839460897347 1148" dur="20s" repeatCount="indefinite" begin="-13.118313100759922s"/><animateTransform attributeName="transform" type="rotate" keyTimes="0;1" begin="-13.118313100759922s" values="0 50 50;45.18159149623941 50 50" dur="20s" repeatCount="indefinite" additive="sum"/><path d="M114.458 87.06a72.028 72.028 0 0 0-7.996-1.68c13.9-14.554 20.617-35.835 17.19-55.708-6.856 2.317-13.385 5.567-19.409 9.574A87.977 87.977 0 0 0 89.352 51.75C88.277 32.552 80.315 13.683 66.76 0c-5.256 7.137-9.532 14.983-12.769 23.231-4.686 11.944-7.202 24.736-7.422 37.564a88.342 88.342 0 0 0-24.69-26.606c-5.91-4.173-12.348-7.602-19.136-10.108-4.4 21.887 3.575 45.844 20.221 60.722.484.432.976.857 1.475 1.273a68.276 68.276 0 0 0-9.125 2.244C9.927 90.044 4.758 92.447 0 95.504c11.587 13.044 30.288 19.339 47.406 15.955 4.613-.913 9.167-2.513 12.944-5.312.096-.07.19-.145.286-.219-1.293 7.413-3.554 14.58-6.683 21.238l9.831 3.674a92.544 92.544 0 0 0 3.685-23.134c.14.1.281.2.424.295 4.114 2.768 8.985 4.231 13.887 4.97 18.185 2.74 37.573-4.79 49.146-19.084-5.157-2.99-10.715-5.271-16.468-6.828z" fill="#e4812f"/></g><g transform="rotate(63.973 415.463 1981.892)"><animateTransform attributeName="transform" type="translate" keyTimes="0;1" values="859.4572789496225 -100;2020 818.2358350531882" dur="20s" repeatCount="indefinite" begin="-16.423050854171816s"/><animateTransform attributeName="transform" type="rotate" keyTimes="0;1" begin="-16.423050854171816s" values="0 50 50;68.64139569099297 50 50" dur="20s" repeatCount="indefinite" additive="sum"/><path d="M55.604 42.294a34.991 34.991 0 0 0-3.884-.816c6.753-7.07 10.016-17.409 8.35-27.063a40.436 40.436 0 0 0-9.428 4.651 42.74 42.74 0 0 0-7.235 6.074C42.885 15.814 39.017 6.647 32.433 0a49.564 49.564 0 0 0-6.204 11.286 52.563 52.563 0 0 0-3.606 18.249A42.917 42.917 0 0 0 10.63 16.609a40.427 40.427 0 0 0-9.296-4.91C-.805 22.33 3.07 33.969 11.156 41.198c.235.21.474.416.716.618-1.5.261-2.982.625-4.432 1.09A31.567 31.567 0 0 0 0 46.396c5.629 6.337 14.714 9.395 23.03 7.751 2.241-.443 4.453-1.22 6.288-2.58l.14-.107a40.74 40.74 0 0 1-3.247 10.318l4.776 1.784a44.958 44.958 0 0 0 1.79-11.238c.068.048.136.097.206.143 1.998 1.345 4.365 2.056 6.746 2.415 8.834 1.33 18.253-2.327 23.875-9.271a33.317 33.317 0 0 0-8-3.317z" fill="#e4812f"/></g><g transform="rotate(-77.207 917.318 -802.617)"><animateTransform attributeName="transform" type="translate" keyTimes="0;1" values="1137.3304669122215 -100;2020 573.7682921365667" dur="20s" repeatCount="indefinite" begin="-6.153183259050667s"/><animateTransform attributeName="transform" type="rotate" keyTimes="0;1" begin="-6.153183259050667s" values="0 50 50;675.7436973368827 50 50" dur="20s" repeatCount="indefinite" additive="sum"/><path d="M118.966 90.488a74.864 74.864 0 0 0-8.31-1.746c14.447-15.127 21.428-37.246 17.866-57.902-7.125 2.41-13.912 5.787-20.173 9.952a91.442 91.442 0 0 0-15.478 12.996C91.754 33.834 83.479 14.222 69.39 0c-5.464 7.418-9.908 15.573-13.272 24.146-4.87 12.414-7.486 25.71-7.715 39.044-6.518-10.858-15.317-20.351-25.662-27.655-6.143-4.337-12.834-7.9-19.89-10.505-4.574 22.749 3.716 47.649 21.018 63.113.502.45 1.014.89 1.532 1.323-3.21.56-6.38 1.338-9.483 2.333C10.318 93.59 4.945 96.088 0 99.265c12.043 13.558 31.481 20.101 49.273 16.583 4.795-.948 9.528-2.611 13.454-5.52.1-.074.198-.151.297-.228-1.343 7.705-3.693 15.154-6.946 22.074l10.219 3.819a96.189 96.189 0 0 0 3.83-24.045c.145.104.292.207.44.307 4.276 2.876 9.34 4.398 14.434 5.165 18.9 2.848 39.053-4.978 51.082-19.835-5.36-3.107-11.137-5.479-17.117-7.097z" fill="#f9ae5c"/></g><g transform="rotate(-129.581 994.915 103.879)"><animateTransform attributeName="transform" type="translate" keyTimes="0;1" values="-100 337.4865758289582;2020 969.9906749283969" dur="20s" repeatCount="indefinite" begin="-12.929219625450505s"/><animateTransform attributeName="transform" type="rotate" keyTimes="0;1" begin="-12.929219625450505s" values="0 50 50;779.6430361352182 50 50" dur="20s" repeatCount="indefinite" additive="sum"/><path d="M113.625 86.426a71.503 71.503 0 0 0-7.937-1.668c13.799-14.448 20.466-35.574 17.064-55.302-6.806 2.3-13.287 5.526-19.267 9.505A87.336 87.336 0 0 0 88.7 51.373C87.634 32.315 79.731 13.583 66.275 0c-5.219 7.085-9.464 14.874-12.677 23.062a107.411 107.411 0 0 0-7.368 37.291A87.699 87.699 0 0 0 21.72 33.94c-5.867-4.142-12.258-7.546-18.997-10.034-4.368 21.728 3.55 45.51 20.074 60.28.48.43.969.85 1.464 1.263a67.78 67.78 0 0 0-9.058 2.228C9.855 89.39 4.723 91.774 0 94.81c11.503 12.95 30.068 19.198 47.06 15.838 4.58-.906 9.101-2.494 12.851-5.273.095-.07.189-.144.283-.217-1.282 7.36-3.527 14.474-6.633 21.083l9.76 3.647a91.87 91.87 0 0 0 3.657-22.965c.139.1.28.198.42.293 4.085 2.747 8.92 4.2 13.787 4.934 18.052 2.72 37.3-4.755 48.788-18.945-5.12-2.968-10.637-5.233-16.348-6.778z" fill="#e4812f"/></g><g transform="rotate(-140.199 1068.689 -183.457)"><animateTransform attributeName="transform" type="translate" keyTimes="0;1" values="1910.8323315699004 -100;2020 827.5044382620125" dur="20s" repeatCount="indefinite" begin="-5.099140442599608s"/><animateTransform attributeName="transform" type="rotate" keyTimes="0;1" begin="-5.099140442599608s" values="0 50 50;600.8956665504112 50 50" dur="20s" repeatCount="indefinite" additive="sum"/><path d="M73.45 55.868a46.222 46.222 0 0 0-5.13-1.078c8.92-9.34 13.23-22.996 11.03-35.749a53.414 53.414 0 0 0-12.454 6.144 56.457 56.457 0 0 0-9.557 8.024C56.65 20.89 51.54 8.781 42.842 0c-3.373 4.58-6.117 9.615-8.194 14.908a69.434 69.434 0 0 0-4.763 24.106A56.691 56.691 0 0 0 14.04 21.94a53.402 53.402 0 0 0-12.28-6.486C-1.064 29.499 4.055 44.873 14.737 54.42c.31.277.626.549.946.816-1.982.345-3.94.826-5.855 1.44A41.7 41.7 0 0 0 0 61.287c7.436 8.371 19.437 12.41 30.421 10.239 2.961-.586 5.883-1.612 8.307-3.409.062-.045.122-.093.184-.14a53.816 53.816 0 0 1-4.289 13.629l6.31 2.357a59.388 59.388 0 0 0 2.363-14.845c.09.064.181.128.273.189 2.64 1.776 5.766 2.715 8.912 3.19 11.669 1.758 24.111-3.074 31.538-12.247a44.01 44.01 0 0 0-10.568-4.382z" fill="#f9ae5c"/></g><g transform="rotate(-34.273 3438.874 -1659.085)"><animateTransform attributeName="transform" type="translate" keyTimes="0;1" values="-100 461.4344024853716;2020 1938.4917297788315" dur="20s" repeatCount="indefinite" begin="-13.357668481003797s"/><animateTransform attributeName="transform" type="rotate" keyTimes="0;1" begin="-13.357668481003797s" values="0 50 50;880.5865518616193 50 50" dur="20s" repeatCount="indefinite" additive="sum"/><path d="M70.393 53.542a44.298 44.298 0 0 0-4.918-1.033c8.55-8.95 12.68-22.038 10.572-34.26a51.19 51.19 0 0 0-11.937 5.888 54.106 54.106 0 0 0-9.158 7.69C54.291 20.02 49.395 8.415 41.058 0c-3.233 4.39-5.862 9.215-7.853 14.288A66.543 66.543 0 0 0 28.64 37.39a54.33 54.33 0 0 0-15.184-16.364 51.179 51.179 0 0 0-11.77-6.216c-2.705 13.46 2.2 28.194 12.437 37.345.297.265.6.526.907.782-1.9.331-3.776.792-5.612 1.38A39.963 39.963 0 0 0 0 58.737c7.126 8.022 18.628 11.893 29.155 9.812 2.837-.561 5.638-1.545 7.96-3.267.06-.043.118-.09.176-.134a51.576 51.576 0 0 1-4.11 13.061l6.047 2.26a56.915 56.915 0 0 0 2.266-14.228c.086.061.173.123.26.181 2.53 1.703 5.527 2.603 8.542 3.057 11.183 1.685 23.107-2.945 30.225-11.737a42.178 42.178 0 0 0-10.128-4.199z" fill="#f9ae5c"/></g><g transform="rotate(-148.383 564.857 375.297)"><animateTransform attributeName="transform" type="translate" keyTimes="0;1" values="-100 312.4318039772646;2020 1656.7886851920525" dur="20s" repeatCount="indefinite" begin="-6.111289678812621s"/><animateTransform attributeName="transform" type="rotate" keyTimes="0;1" begin="-6.111289678812621s" values="0 50 50;508.2095362143855 50 50" dur="20s" repeatCount="indefinite" additive="sum"/><path d="M94.768 72.083a59.637 59.637 0 0 0-6.62-1.391c11.51-12.05 17.07-29.67 14.232-46.125-5.676 1.92-11.082 4.61-16.07 7.928a72.842 72.842 0 0 0-12.33 10.352C73.09 26.952 66.5 11.33 55.277 0c-4.353 5.91-7.893 12.406-10.573 19.235a89.586 89.586 0 0 0-6.145 31.102 73.145 73.145 0 0 0-20.443-22.03c-4.893-3.454-10.223-6.294-15.844-8.368-3.643 18.121 2.96 37.957 16.743 50.276.4.358.808.709 1.22 1.054a56.531 56.531 0 0 0-7.554 1.858C8.22 74.554 3.94 76.544 0 79.075c9.594 10.8 25.078 16.012 39.25 13.21 3.82-.756 7.591-2.08 10.718-4.398.08-.059.158-.12.237-.181a69.435 69.435 0 0 1-5.533 17.584l8.14 3.042a76.624 76.624 0 0 0 3.05-19.154c.116.082.233.165.352.244 3.406 2.291 7.44 3.503 11.498 4.115 15.056 2.269 31.11-3.966 40.691-15.801-4.27-2.475-8.871-4.364-13.635-5.653z" fill="#0a0a0a"/></g><g transform="rotate(-114.72 327.206 286.169)"><animateTransform attributeName="transform" type="translate" keyTimes="0;1" values="-100 416.6260083259795;1097.844454648874 1148" dur="20s" repeatCount="indefinite" begin="-2.435072692551863s"/><animateTransform attributeName="transform" type="rotate" keyTimes="0;1" begin="-2.435072692551863s" values="0 50 50;1054.5786472088528 50 50" dur="20s" repeatCount="indefinite" additive="sum"/><path d="M80.217 61.015a50.48 50.48 0 0 0-5.604-1.177c9.742-10.2 14.45-25.115 12.047-39.043-4.804 1.624-9.38 3.902-13.602 6.71a61.658 61.658 0 0 0-10.436 8.763C61.868 22.814 56.288 9.59 46.789 0c-3.685 5.002-6.681 10.5-8.95 16.282a75.83 75.83 0 0 0-5.201 26.326 61.914 61.914 0 0 0-17.304-18.647c-4.142-2.924-8.654-5.328-13.412-7.084-3.084 15.34 2.506 32.13 14.172 42.557.339.303.684.6 1.034.892a47.851 47.851 0 0 0-6.395 1.572A45.54 45.54 0 0 0 0 66.933c8.12 9.142 21.227 13.554 33.224 11.182 3.234-.64 6.425-1.76 9.072-3.723l.2-.153a58.774 58.774 0 0 1-4.683 14.884l6.89 2.575a64.859 64.859 0 0 0 2.582-16.213c.098.07.197.14.297.207 2.883 1.94 6.298 2.965 9.733 3.483C70.06 81.095 83.648 75.818 91.76 65.8a48.064 48.064 0 0 0-11.542-4.785z" fill="#0a0a0a"/></g><g transform="rotate(170.525 789.783 274.8)"><animateTransform attributeName="transform" type="translate" keyTimes="0;1" values="965.0148697248385 -100;2020 727.5748868310286" dur="20s" repeatCount="indefinite" begin="-8.048308667011185s"/><animateTransform attributeName="transform" type="rotate" keyTimes="0;1" begin="-8.048308667011185s" values="0 50 50;332.24632498816203 50 50" dur="20s" repeatCount="indefinite" additive="sum"/><path d="M86.08 65.475a54.17 54.17 0 0 0-6.013-1.264c10.455-10.945 15.506-26.95 12.928-41.896-5.156 1.743-10.066 4.187-14.597 7.201a66.165 66.165 0 0 0-11.2 9.404C66.392 24.482 60.404 10.29 50.209 0c-3.953 5.367-7.169 11.268-9.603 17.472a81.373 81.373 0 0 0-5.582 28.25 66.44 66.44 0 0 0-18.568-20.01c-4.445-3.138-9.287-5.717-14.392-7.601-3.31 16.46 2.689 34.478 15.208 45.667.363.325.733.644 1.109.957a51.349 51.349 0 0 0-6.862 1.688A48.87 48.87 0 0 0 0 71.826c8.714 9.81 22.78 14.544 35.652 11.999 3.47-.686 6.895-1.89 9.736-3.995.072-.053.143-.11.214-.164a63.07 63.07 0 0 1-5.025 15.972L47.97 98.4a69.6 69.6 0 0 0 2.77-17.398c.106.075.212.15.32.221 3.093 2.082 6.757 3.183 10.444 3.738 13.676 2.061 28.257-3.602 36.96-14.352a51.578 51.578 0 0 0-12.384-5.135z" fill="#e4812f"/></g><g transform="rotate(80.228 115.326 1543.4)"><animateTransform attributeName="transform" type="translate" keyTimes="0;1" values="-100 148.14386834425068;2020 1487.709440148762" dur="20s" repeatCount="indefinite" begin="-13.122735988919757s"/><animateTransform attributeName="transform" type="rotate" keyTimes="0;1" begin="-13.122735988919757s" values="0 50 50;573.9836777763392 50 50" dur="20s" repeatCount="indefinite" additive="sum"/><path d="M72.225 54.936a45.45 45.45 0 0 0-5.045-1.06c8.771-9.184 13.01-22.612 10.846-35.153a52.523 52.523 0 0 0-12.247 6.042 55.515 55.515 0 0 0-9.396 7.89C55.704 20.541 50.68 8.635 42.127 0c-3.317 4.503-6.015 9.455-8.058 14.66a68.275 68.275 0 0 0-4.683 23.703 55.745 55.745 0 0 0-15.58-16.79 52.511 52.511 0 0 0-12.075-6.377c-2.777 13.81 2.256 28.928 12.76 38.316.305.273.615.54.93.803-1.949.34-3.874.813-5.757 1.417A41.003 41.003 0 0 0 0 60.265c7.312 8.23 19.113 12.203 29.914 10.067 2.911-.575 5.785-1.585 8.168-3.351l.18-.138a52.918 52.918 0 0 1-4.217 13.4l6.204 2.32a58.397 58.397 0 0 0 2.325-14.598c.088.062.178.125.268.185 2.596 1.747 5.67 2.67 8.763 3.137 11.474 1.729 23.71-3.023 31.012-12.043a43.276 43.276 0 0 0-10.392-4.308z" fill="#f9ae5c"/></g><g transform="rotate(99.899 -2.791 406.612)"><animateTransform attributeName="transform" type="translate" keyTimes="0;1" values="-100 325.0819649423152;2020 1113.5666711258366" dur="20s" repeatCount="indefinite" begin="-1.4572760110001015s"/><animateTransform attributeName="transform" type="rotate" keyTimes="0;1" begin="-1.4572760110001015s" values="0 50 50;543.8276909868539 50 50" dur="20s" repeatCount="indefinite" additive="sum"/><path d="M73.892 56.204a46.5 46.5 0 0 0-5.162-1.085c8.974-9.395 13.31-23.134 11.097-35.964a53.735 53.735 0 0 0-12.53 6.182 56.796 56.796 0 0 0-9.613 8.072C56.99 21.015 51.85 8.834 43.099 0c-3.393 4.607-6.154 9.673-8.243 14.998a69.85 69.85 0 0 0-4.792 24.25 57.032 57.032 0 0 0-15.94-17.176 53.723 53.723 0 0 0-12.353-6.526c-2.841 14.13 2.308 29.596 13.054 39.201.312.28.63.553.952.822-1.994.347-3.963.83-5.89 1.449A41.95 41.95 0 0 0 0 61.655c7.48 8.421 19.554 12.485 30.604 10.3 2.979-.589 5.918-1.622 8.357-3.429.062-.045.122-.094.184-.14a54.14 54.14 0 0 1-4.314 13.71l6.347 2.371a59.744 59.744 0 0 0 2.378-14.934c.09.064.182.128.274.19 2.656 1.787 5.801 2.732 8.966 3.209 11.739 1.769 24.256-3.092 31.727-12.32a44.274 44.274 0 0 0-10.631-4.408z" fill="#f9ae5c"/></g><g transform="rotate(158.846 846.33 886.937)"><animateTransform attributeName="transform" type="translate" keyTimes="0;1" values="-100 275.5771936441378;2020 1427.3290778659464" dur="20s" repeatCount="indefinite" begin="-16.09493971826567s"/><animateTransform attributeName="transform" type="rotate" keyTimes="0;1" begin="-16.09493971826567s" values="0 50 50;566.6854911267673 50 50" dur="20s" repeatCount="indefinite" additive="sum"/><path d="M72.489 55.136a45.617 45.617 0 0 0-5.064-1.063c8.803-9.218 13.057-22.695 10.886-35.281a52.714 52.714 0 0 0-12.292 6.064 55.717 55.717 0 0 0-9.43 7.918C55.907 20.616 50.864 8.666 42.28 0c-3.33 4.52-6.038 9.49-8.087 14.713a68.524 68.524 0 0 0-4.7 23.79 55.949 55.949 0 0 0-15.638-16.85A52.703 52.703 0 0 0 1.737 15.25C-1.05 29.113 4.002 44.285 14.544 53.708c.306.273.618.542.933.806a43.24 43.24 0 0 0-5.778 1.42A41.153 41.153 0 0 0 0 60.485c7.338 8.262 19.182 12.248 30.023 10.105 2.922-.578 5.806-1.591 8.198-3.364l.18-.138a53.111 53.111 0 0 1-4.231 13.45l6.226 2.326a58.61 58.61 0 0 0 2.333-14.65c.09.063.179.126.269.186 2.605 1.753 5.69 2.68 8.795 3.148C63.31 73.282 75.59 68.514 82.918 59.46a43.434 43.434 0 0 0-10.43-4.325z" fill="#28292f"/></g></svg>